<svg height="512pt" viewBox="0 0 512 512" width="512pt" xmlns="http://www.w3.org/2000/svg"><path d="m0 0h512v512h-512z" fill="#4a696f"/><path d="m256 0h256v512h-256zm0 0" fill="#384949"/><path d="m256 61c-107.402344 0-195 87.597656-195 195s87.597656 195 195 195 195-87.597656 195-195-87.597656-195-195-195zm0 0" fill="#e6ffff"/><path d="m451 256c0 107.402344-87.597656 195-195 195v-390c107.402344 0 195 87.597656 195 195zm0 0" fill="#d9f2ff"/><path d="m91 256c0-49.628906 40.371094-90 90-90 35.582031 0 67.617188 20.976562 82.046875 52.96875l-29.296875 37.03125zm0 0" fill="#57d9ad"/><path d="m331 346c-35.582031 0-67.617188-20.976562-82.046875-52.96875l29.296875-37.03125h142.75c0 49.628906-40.371094 90-90 90zm0 0" fill="#26bfa6"/><path d="m256 233.792969v-142.792969c49.628906 0 90 40.371094 90 90 0 35.652344-20.992188 67.734375-52.984375 82.164062zm0 0" fill="#26bfa6"/><path d="m256 421c-49.628906 0-90-40.371094-90-90 0-35.652344 20.992188-67.734375 52.984375-82.164062l37.015625 29.371093zm0 0" fill="#57d9ad"/><path d="m421 61h30v30h-30zm0 0" fill="#293939"/><path d="m61 61h30v30h-30zm0 0" fill="#384949"/><path d="m421 421h30v30h-30zm0 0" fill="#293939"/><path d="m61 421h30v30h-30zm0 0" fill="#384949"/><path d="m256 211c-24.902344 0-45 20.097656-45 45s20.097656 45 45 45 45-20.097656 45-45-20.097656-45-45-45zm0 0" fill="#4a696f"/><path d="m301 256c0 24.902344-20.097656 45-45 45v-90c24.902344 0 45 20.097656 45 45zm0 0" fill="#384949"/></svg>